<?xml version="1.0" encoding="UTF-8" standalone="no"?>
<svg
   version="1.1"
   x="0px"
   y="0px"
   viewBox="0 0 100 37.695999"
   enable-background="new 0 0 100 100"
   xml:space="preserve"
   id="svg397"
   sodipodi:docname="battery.svg"
   width="100"
   height="37.695999"
   inkscape:version="1.2.2 (b0a8486541, 2022-12-01)"
   xmlns:inkscape="http://www.inkscape.org/namespaces/inkscape"
   xmlns:sodipodi="http://sodipodi.sourceforge.net/DTD/sodipodi-0.dtd"
   xmlns="http://www.w3.org/2000/svg"
   xmlns:svg="http://www.w3.org/2000/svg"><defs
     id="defs401" /><sodipodi:namedview
     id="namedview399"
     pagecolor="#505050"
     bordercolor="#eeeeee"
     borderopacity="1"
     inkscape:showpageshadow="0"
     inkscape:pageopacity="0"
     inkscape:pagecheckerboard="0"
     inkscape:deskcolor="#505050"
     showgrid="false"
     inkscape:zoom="7"
     inkscape:cx="40.214286"
     inkscape:cy="31.428571"
     inkscape:window-width="1920"
     inkscape:window-height="1022"
     inkscape:window-x="1920"
     inkscape:window-y="0"
     inkscape:window-maximized="1"
     inkscape:current-layer="svg397" /><g
     id="g391"
     transform="translate(0,-31.152)"><path
       d="M 99.933,43.74 C 99.747,42.989 99.159,42.4 98.408,42.215 l -0.067,-0.068 h -3.575 v -7.33 c 0,-2.02 -1.645,-3.665 -3.664,-3.665 H 3.665 C 1.646,31.152 0,32.796 0,34.816 v 30.367 c 0,2.02 1.646,3.665 3.665,3.665 h 87.436 c 2.02,0 3.664,-1.645 3.664,-3.665 v -7.33 h 3.575 l 0.067,-0.068 c 0.751,-0.186 1.34,-0.774 1.525,-1.525 L 100,56.192 V 43.807 Z m -7.261,21.444 c 0,0.866 -0.706,1.571 -1.571,1.571 H 3.665 c -0.866,0 -1.57,-0.705 -1.57,-1.571 V 34.816 c 0,-0.866 0.704,-1.57 1.57,-1.57 h 87.436 c 0.865,0 1.571,0.704 1.571,1.57 v 7.33 15.707 z"
       id="path387" /><path
       d="m 18.693,35.341 v 0 H 5.498 c -0.867,0 -1.57,0.703 -1.57,1.571 V 63.09 c 0,0.869 0.702,1.571 1.57,1.571 h 25.603 5.653 21.378 L 40,35.34 Z"
       id="path389" /></g></svg>
