<svg width="17" height="16" viewBox="0 0 17 16" fill="none" xmlns="http://www.w3.org/2000/svg">
<path d="M13.2473 8.70881C13.2742 8.53193 13.2223 8.35193 13.106 8.21569C12.9898 8.07944 12.8198 8.00069 12.6404 8.00006H12.586C12.2785 8.00256 12.0198 8.23131 11.9779 8.53632C11.8467 9.38507 11.4098 10.1576 10.7485 10.7062C10.0873 11.255 9.2479 11.5437 8.38916 11.5162C7.53041 11.4894 6.71108 11.1494 6.08548 10.56H7.03112C7.36924 10.5675 7.658 10.3181 7.69987 9.98248C7.71737 9.80185 7.65799 9.6231 7.53612 9.48873C7.41425 9.35498 7.24112 9.27936 7.05987 9.27998H5.13987C4.43299 9.27998 3.85987 9.8531 3.85987 10.56V12.48C3.85924 12.6612 3.93487 12.8343 4.06862 12.9562C4.20299 13.0781 4.38174 13.1375 4.56236 13.12C4.89737 13.0781 5.14673 12.79 5.13987 12.4525V11.4256C5.98675 12.2556 7.11043 12.7425 8.29491 12.7931C9.47928 12.8437 10.6405 12.4537 11.5549 11.6994C12.4693 10.9443 13.0724 9.87808 13.2474 8.7056L13.2473 8.70881Z" fill="#101828"/>
<path d="M9.29981 6.01744C9.28231 6.19806 9.34168 6.37681 9.46355 6.51118C9.58543 6.64493 9.75856 6.72056 9.93981 6.71993H11.8598C12.1992 6.71993 12.5248 6.58493 12.7648 6.34493C13.0048 6.10492 13.1398 5.77929 13.1398 5.43993V3.51993C13.1404 3.33869 13.0648 3.16557 12.9311 3.04368C12.7967 2.9218 12.6179 2.86243 12.4373 2.87993C12.1023 2.92181 11.8529 3.20993 11.8598 3.54744V4.57307V4.57244C11.0129 3.74307 9.88925 3.25556 8.70477 3.20556C7.5204 3.15494 6.35917 3.54432 5.44477 4.29931C4.5304 5.05368 3.92726 6.11995 3.75229 7.29243C3.72604 7.46931 3.77791 7.64931 3.89416 7.78492C4.01041 7.92055 4.18042 7.99929 4.35915 7.99993H4.41353C4.72103 7.99743 4.97978 7.76868 5.02166 7.46368C5.15291 6.61492 5.58978 5.8424 6.25103 5.29376C6.91228 4.745 7.75166 4.45625 8.61039 4.48376C9.46914 4.51063 10.2885 4.85064 10.9141 5.44001H9.96719C9.62969 5.43314 9.34168 5.68243 9.29981 6.01744Z" fill="#101828"/>
</svg>
