<svg width="17" height="16" viewBox="0 0 17 16" fill="none" xmlns="http://www.w3.org/2000/svg">
<path d="M14.66 6.96H11.0105L13.5912 4.37936L12.1205 2.90874L9.53991 5.48938V1.83994H7.45991V5.48938L4.87927 2.90874L3.40864 4.37936L5.98928 6.96H2.33984V9.04H5.98928L3.40864 11.6206L4.87927 13.0913L7.45991 10.5106V14.1601H9.53991V10.5106L12.1205 13.0913L13.5912 11.6206L11.0105 9.04H14.66V6.96ZM9.05997 8.56C8.83685 8.78312 8.5006 8.85 8.20872 8.72937C7.91748 8.60875 7.72685 8.32374 7.72685 8.00813C7.72685 7.69187 7.91748 7.4075 8.20872 7.28688C8.5006 7.16563 8.83685 7.2325 9.05997 7.45625C9.3581 7.76189 9.35434 8.25062 9.05185 8.55189L9.05997 8.56Z" fill="#101828"/>
</svg>
