<svg width="16" height="16" viewBox="0 0 16 16" fill="none" xmlns="http://www.w3.org/2000/svg">
<path d="M15.0244 12.1906L9.33624 2.33871C8.76998 1.35808 7.35496 1.35808 6.78872 2.33871L1.1012 12.1906C0.534941 13.1712 1.24245 14.3962 2.37494 14.3962H13.7513C14.8831 14.3968 15.5906 13.1712 15.0244 12.1906ZM7.99816 12.9499C7.59317 12.9499 7.31566 12.6374 7.31566 12.233C7.31566 11.8168 7.60504 11.5162 7.99816 11.5162C8.41441 11.5162 8.68065 11.8168 8.68065 12.233C8.68128 12.638 8.41502 12.9499 7.99816 12.9499ZM9.06504 5.56049L8.42941 10.2117C8.40003 10.4273 8.21566 10.5879 7.99816 10.5879C7.78065 10.5879 7.59629 10.4273 7.56691 10.2117L6.93128 5.56049C6.89565 5.29924 7.09878 5.06674 7.36253 5.06674H8.63377C8.89752 5.06674 9.10067 5.29924 9.06504 5.56049Z" fill="#101828"/>
</svg>
