<svg width="16" height="16" viewBox="0 0 16 16" fill="none" xmlns="http://www.w3.org/2000/svg">
<path d="M13.7238 10.1563H12.3907V9.48944C12.3907 8.38632 11.4938 7.48944 10.3907 7.48944H9.05758V6.15632H9.72446C10.4595 6.15632 11.0576 5.55819 11.0576 4.8232V2.8232C11.0576 2.08819 10.4595 1.49008 9.72446 1.49008H7.05758C6.32195 1.49008 5.72446 2.08821 5.72446 2.8232V4.8232C5.72446 5.55821 6.32259 6.15632 7.05758 6.15632H7.72446V7.48944H6.39134C5.28822 7.48944 4.39134 8.38632 4.39134 9.48944V10.1563H3.05822C2.32259 10.1563 1.7251 10.7545 1.7251 11.4894V13.4894C1.7251 14.2245 2.32323 14.8226 3.05822 14.8226H6.39134C7.12697 14.8226 7.72446 14.2244 7.72446 13.4894V11.4894C7.72446 10.7544 7.12633 10.1563 6.39134 10.1563H5.72446V9.48944C5.72446 9.12131 6.02383 8.82256 6.39134 8.82256H10.3913C10.7595 8.82256 11.0582 9.12131 11.0582 9.48944V10.1563H10.3913C9.65633 10.1563 9.05822 10.7545 9.05822 11.4894V13.4894C9.05822 14.2245 9.65635 14.8226 10.3913 14.8226H13.7245C14.4595 14.8226 15.0576 14.2244 15.0576 13.4894V11.4894C15.057 10.7544 14.4588 10.1563 13.7238 10.1563ZM6.3907 11.4894L6.39195 13.4894H3.05691V11.4894H6.3907ZM7.05695 4.82256V2.82256H9.72383L9.72508 4.82256H7.05695ZM10.3907 13.4894V11.4894H13.7238L13.7251 13.4894H10.3907Z" fill="#101828"/>
</svg>
