<?xml version="1.0" encoding="UTF-8" standalone="no"?>
<svg
   width="48pt"
   height="48pt"
   version="1.1"
   viewBox="0 0 48 48"
   id="svg10"
   sodipodi:docname="noun-value-1337897-1E3989.svg"
   inkscape:version="1.1.2 (0a00cf5339, 2022-02-04)"
   xmlns:inkscape="http://www.inkscape.org/namespaces/inkscape"
   xmlns:sodipodi="http://sodipodi.sourceforge.net/DTD/sodipodi-0.dtd"
   xmlns="http://www.w3.org/2000/svg"
   xmlns:svg="http://www.w3.org/2000/svg">
  <defs
     id="defs14" />
  <sodipodi:namedview
     id="namedview12"
     pagecolor="#ffffff"
     bordercolor="#666666"
     borderopacity="1.0"
     inkscape:pageshadow="2"
     inkscape:pageopacity="0.0"
     inkscape:pagecheckerboard="0"
     inkscape:document-units="pt"
     showgrid="false"
     inkscape:zoom="10.23"
     inkscape:cx="26.783969"
     inkscape:cy="34.799609"
     inkscape:window-width="1920"
     inkscape:window-height="1006"
     inkscape:window-x="0"
     inkscape:window-y="25"
     inkscape:window-maximized="1"
     inkscape:current-layer="svg10" />
  <path
     d="m 45.000961,21.679822 c -0.495031,0.01041 -1.024641,0.13155 -1.568156,0.391185 L 32.389686,27.377924 C 32.18544,26.155923 31.049996,25.21432 29.720675,25.252427 l 0.0035,0.0035 -6.013141,0.183473 c -1.564701,0 -2.75214,-0.377332 -4.147219,-0.782358 -1.398534,-0.405027 -2.994429,-0.827361 -5.24116,-0.827361 -2.000895,0 -4.9849568,0.720049 -7.1278228,1.51968 v -2.101292 l -0.0035,0.0035 c 0,-0.308102 -0.249247,-0.560805 -0.557348,-0.560805 h -6.05116098 0.0035 c -0.308101,0 -0.560805,0.252713 -0.560805,0.560805 V 39.85381 c 0,0.308101 0.252713,0.557348 0.560805,0.557348 h 6.05116098 -0.0035 c 0.308101,0 0.557348,-0.249247 0.557348,-0.557348 V 37.960235 C 14.956078,36.457836 19.467176,38.780674 26.08897,38.780674 h 0.0035 c 1.131961,0 2.575516,-0.623114 4.344488,-1.540506 1.768973,-0.917409 3.811431,-2.160147 5.884995,-3.499837 4.140305,-2.672468 8.387842,-5.722287 10.620394,-7.235143 0.633501,-0.429265 0.990078,-1.073117 1.066204,-1.723953 0.07616,-0.654275 -0.10731,-1.31204 -0.484653,-1.855555 -0.515803,-0.747745 -1.436642,-1.267022 -2.523672,-1.246195 z m 0.13847,1.087031 c 0.675048,0.0069 1.163157,0.349638 1.467749,0.792746 0.23194,0.335795 0.335795,0.737357 0.294249,1.093942 -0.04154,0.356587 -0.204245,0.671583 -0.585043,0.927778 v 0.0035 c -2.264012,1.533594 -6.494267,4.569499 -10.603554,7.22123 -2.052827,1.325865 -4.078005,2.554779 -5.791589,3.444449 -1.713584,0.889671 -3.170964,1.412448 -3.832168,1.412448 -6.29354,0 -10.977537,-2.319399 -18.8976368,-0.841211 v -1.627002 0.0035 c 0.0035,-0.148857 -0.05539,-0.290784 -0.159244,-0.398105 -0.103859,-0.10731 -0.249247,-0.166165 -0.398105,-0.166165 -0.148858,0 -0.290785,0.05886 -0.398106,0.166165 -0.103859,0.10731 -0.1627,0.249248 -0.159243,0.398105 v 4.095285 H 4.4012632 V 23.805074 h 1.675477 v 4.095285 c -0.0035,0.148857 0.05539,0.290785 0.159243,0.398105 0.10731,0.10731 0.249248,0.166165 0.398106,0.166165 0.148858,0 0.29425,-0.05886 0.398105,-0.166165 0.10386,-0.10731 0.1627,-0.249248 0.159244,-0.398105 v -1.353516 c 2.01472,-0.803131 5.2965498,-1.59935 7.1278238,-1.59935 2.108215,0 3.548313,0.380797 4.929567,0.782359 1.381254,0.398105 2.714032,0.82736 4.462266,0.82736 v -0.0035 h 0.01731 l 6.026967,-0.183473 c 0.865441,-0.02423 1.550875,0.654274 1.550875,1.401991 0,0.751209 -0.675047,1.36743 -1.588983,1.401992 v -0.0035 l -11.462292,0.491551 h -0.0035 c -0.148857,0.0035 -0.290784,0.06923 -0.391184,0.176553 -0.103859,0.110772 -0.155778,0.256169 -0.148857,0.405026 0.0035,0.152323 0.07269,0.290785 0.183473,0.391184 0.110773,0.100384 0.25617,0.152322 0.405027,0.141936 l 11.462297,-0.491575 h 0.0035 c 1.08703,-0.04154 2.073565,-0.671581 2.47174,-1.59935 v 0.0035 c 0.01731,-0.0069 0.03808,-0.01731 0.05539,-0.02424 l 11.624475,-5.587316 c 0.460415,-0.221554 0.865441,-0.311557 1.222,-0.311557 z m -43.9961128,1.04201 h 2.142866 v 15.48837 h -2.142866 z"
     fill="#1e3888"
     fill-rule="evenodd"
     id="path2"
     style="stroke-width:0.886214" />
  <path
     d="m 26.996629,13.537284 c -0.308101,0.0035 -0.553884,0.25617 -0.550419,0.564272 v 3.219438 h -3.219439 v 0.0035 c -0.148858,-0.0035 -0.29425,0.05539 -0.398105,0.159245 -0.10731,0.103859 -0.166166,0.249247 -0.166166,0.398105 0,0.148857 0.05886,0.290785 0.166166,0.398105 0.103859,0.103859 0.249247,0.162701 0.398105,0.159244 h 3.219439 v 3.21944 c 0,0.148857 0.05886,0.294249 0.1627,0.401561 0.103859,0.10386 0.245783,0.166166 0.398105,0.166166 0.148857,0 0.290785,-0.06232 0.394641,-0.166166 0.10731,-0.10731 0.1627,-0.252712 0.1627,-0.401561 v -3.21944 h 3.21944 c 0.148857,0.0035 0.294249,-0.05539 0.401561,-0.159244 0.10386,-0.10731 0.166165,-0.249248 0.166165,-0.398105 0,-0.148858 -0.06232,-0.29425 -0.166165,-0.398105 -0.10731,-0.10386 -0.252713,-0.1627 -0.401561,-0.159245 h -3.21944 v -3.222895 c 0,-0.148857 -0.05885,-0.294249 -0.1627,-0.401562 -0.10731,-0.107309 -0.252713,-0.166165 -0.405027,-0.162699 z"
     fill="#1e3888"
     fill-rule="evenodd"
     id="path4"
     style="stroke-width:0.886214" />
  <path
     d="m 31.562406,6.5618921 c -0.308102,0.0035 -0.553884,0.256168 -0.550419,0.56427 v 1.623545 h -1.623545 c -0.148857,0 -0.294249,0.05539 -0.398105,0.1627 -0.10731,0.103859 -0.166165,0.245782 -0.166165,0.394639 0,0.152323 0.05886,0.294251 0.166165,0.398105 0.103859,0.10731 0.249248,0.162702 0.398105,0.162702 h 1.623545 v 1.6200879 -0.0035 c 0,0.148857 0.05539,0.294249 0.1627,0.401561 0.103859,0.103859 0.245782,0.166165 0.39464,0.166165 0.152322,0 0.29425,-0.06232 0.398105,-0.166165 0.10731,-0.10731 0.162701,-0.252713 0.162701,-0.401561 V 9.8643521 h 1.620088 l -0.0035,0.0035 c 0.148857,0 0.294249,-0.05539 0.401561,-0.1627 0.10386,-0.10386 0.166166,-0.245783 0.166166,-0.398107 0,-0.148857 -0.06232,-0.290784 -0.166166,-0.394639 -0.10731,-0.10731 -0.252712,-0.1627 -0.401561,-0.1627 h -1.620099 v -1.623545 h 0.0035 c 0,-0.148857 -0.05886,-0.29425 -0.166165,-0.401562 -0.10386,-0.10731 -0.249249,-0.166165 -0.401562,-0.1627 z"
     fill="#1e3888"
     fill-rule="evenodd"
     id="path6"
     style="stroke-width:0.886214" />
  <path
     d="m 22.429966,6.5618921 c -0.308102,0.0035 -0.553884,0.256168 -0.546962,0.56427 v 1.623545 h -1.627002 c -0.148857,0 -0.290784,0.05539 -0.398105,0.1627 -0.10731,0.103859 -0.166165,0.245782 -0.166165,0.394639 0,0.152323 0.05886,0.294251 0.166165,0.398105 0.10731,0.10731 0.249248,0.162702 0.398105,0.162702 h 1.623545 v 1.6200879 l 0.0035,-0.0035 c -0.0035,0.148857 0.05539,0.294249 0.159245,0.401561 0.103859,0.103859 0.249248,0.166165 0.398105,0.166165 0.148857,0 0.290784,-0.06232 0.398105,-0.166165 0.103859,-0.10731 0.1627,-0.252713 0.159244,-0.401561 V 9.8643521 h 1.620088 v 0.0035 c 0.148858,0 0.290784,-0.05539 0.398105,-0.1627 0.10731,-0.10386 0.166165,-0.245783 0.166165,-0.398107 0,-0.148857 -0.05886,-0.290784 -0.166165,-0.394639 -0.10731,-0.10731 -0.249247,-0.1627 -0.398105,-0.1627 h -1.620088 v -1.623545 c 0.0035,-0.148857 -0.05539,-0.29425 -0.1627,-0.401562 -0.10731,-0.10731 -0.252713,-0.166165 -0.405027,-0.1627 z"
     fill="#1e3888"
     fill-rule="evenodd"
     id="path8"
     style="stroke-width:0.886214" />
</svg>
