<?xml version="1.0" encoding="UTF-8" standalone="no"?>
<svg
   version="1.1"
   x="0px"
   y="0px"
   viewBox="0 0 154.8 171.60001"
   xml:space="preserve"
   id="svg179"
   sodipodi:docname="plus_minus.svg"
   width="154.8"
   height="171.60001"
   inkscape:version="1.2.2 (b0a8486541, 2022-12-01)"
   xmlns:inkscape="http://www.inkscape.org/namespaces/inkscape"
   xmlns:sodipodi="http://sodipodi.sourceforge.net/DTD/sodipodi-0.dtd"
   xmlns="http://www.w3.org/2000/svg"
   xmlns:svg="http://www.w3.org/2000/svg"><defs
     id="defs183" /><sodipodi:namedview
     id="namedview181"
     pagecolor="#505050"
     bordercolor="#eeeeee"
     borderopacity="1"
     inkscape:showpageshadow="0"
     inkscape:pageopacity="0"
     inkscape:pagecheckerboard="0"
     inkscape:deskcolor="#505050"
     showgrid="false"
     inkscape:zoom="1.28125"
     inkscape:cx="76.878049"
     inkscape:cy="149.85366"
     inkscape:window-width="1920"
     inkscape:window-height="1022"
     inkscape:window-x="1920"
     inkscape:window-y="0"
     inkscape:window-maximized="1"
     inkscape:current-layer="svg179" /><g
     id="g173"
     transform="translate(-178.6,-170.2)"><path
       d="m 265.6,179.8 v 48.9 h 58.8 c 5,0 9,4 9,9 v 0 c 0,5 -4,9 -9,9 h -58.8 v 50.4 c 0,5.3 -4.3,9.6 -9.6,9.6 v 0 c -5.3,0 -9.6,-4.3 -9.6,-9.6 v -50.4 h -58.8 c -5,0 -9,-4 -9,-9 v 0 c 0,-5 4,-9 9,-9 h 58.8 v -48.9 c 0,-5.3 4.3,-9.6 9.6,-9.6 v 0 c 5.3,0 9.6,4.3 9.6,9.6 z m 67.8,153 v 0 c 0,5 -4,9 -9,9 H 187.6 c -5,0 -9,-4 -9,-9 v 0 c 0,-5 4,-9 9,-9 h 136.8 c 5,0 9,4 9,9 z"
       id="path171" /></g></svg>
