<?xml version="1.0" encoding="utf-8" standalone="no"?><!-- Generator: Adobe Illustrator 22.0.1, SVG Export Plug-In . SVG Version: 6.00 Build 0)  --><svg xmlns="http://www.w3.org/2000/svg" xmlns:xlink="http://www.w3.org/1999/xlink" id="Ebene_1" style="enable-background:new 0 0 355.2 142.4;" version="1.1" viewBox="0 0 355.2 142.4" x="0px" xml:space="preserve" y="0px">
<style type="text/css">
	.st0{fill:#E30613;}
	.st1{fill:none;stroke:#000000;stroke-width:0.9875;stroke-miterlimit:3.8637;}
	.st2{fill:#FFFFFF;}
	.st3{fill:#979A9C;}
</style>
<g>
	<path class="st0" d="M167.3,17.7h9.9c7.8,0,11.5,4.4,11.5,16.3v11.9c0,13.7-3.8,17.6-14.3,17.6h-7.1L167.3,17.7L167.3,17.7z    M159.7,70.1h13.5c10.3,0,16.2-2.5,19.4-7.6c2.4-3.9,3.6-11.2,3.6-23.7c0-1.9-0.2-13.6-2.6-18.6c-2.9-6.3-8.3-9-15.8-9h-18.1   L159.7,70.1L159.7,70.1z"/>
	<path class="st0" d="M201.6,52.5c-0.2,5.6-0.2,18.9,17.2,18.8c9.7,0,18.3-4,18.3-16.4c0-18.7-26.4-16.8-26.4-29.8   c0-6.4,4.6-8.6,9.1-8.6c7.1,0,9.1,4.2,9.1,10.7h7.8c0.5-12-5.5-17.2-16.3-17.2c-9.9,0-17.3,5.5-17.3,16c0,17.7,26.4,16.2,26.4,29.3   c0,7-4.6,9.5-10.5,9.5c-4.8,0-9.9-2.5-9.9-10.5v-1.7L201.6,52.5L201.6,52.5z"/>
	<path class="st0" d="M242.8,21.6v5.5h5.8v36.2c0,4.7,3.9,7.3,10.2,7.3c2.2,0,4.4-0.5,6.6-0.7v-5.1c-1.5,0.2-2.5,0.3-3,0.3   c-6.1,0-6.1-3.3-6.1-6V27.1h9v-5.5h-9l0-10.5h-7.7l0,10.5H242.8L242.8,21.6z"/>
	<path class="st0" d="M307.3,26.9c0.5-12.3-5.5-17-18.3-17c-12.5,0-18.5,7.5-18.5,19.3v19.3c0,16.3,6,22.8,18.5,22.8   c7.6,0,13.2-1.8,18-4.4V38.3h-18.4v6.5h10.9v17.6C298,63.6,294.4,65,289,65c-7.1,0-10.9-3.3-10.9-16.2V29   c0-12.3,8.5-12.7,10.9-12.7c7.6,0,10.4,3.8,10.4,10.7L307.3,26.9L307.3,26.9z"/>
	<path class="st0" d="M323,42.5h8c7.7,0,13.5,1.6,13.5,11c0,4.3-2.9,10-10.9,10H323V42.5L323,42.5z M323,17.7h10.6   c6.3,0,9.1,4,9.1,8.9c0,5.7-2.9,9.3-8.7,9.4H323L323,17.7L323,17.7z M334.4,70.1c6.7,0,17.7-1.5,17.7-16.6   c0-8.1-3.7-13.1-12.1-14.1V39c7.6-1.7,10.1-6.6,10.1-14c0-1.1-0.3-4.7-2.4-7.8c-2.2-3.3-5-6-13.1-6h-19.2v58.9H334.4L334.4,70.1z"/>
	<line class="st1" x1="140.1" x2="140.1" y1="0.8" y2="139.9"/>
	<path d="M167.8,127.7h-1.5v-1.4c-0.9,0.9-2,1.6-3.1,1.6c-1.6,0-3-0.8-3-3.1v-7.6h1.5v7.6c0,1.4,0.7,1.9,1.7,1.9   c1.1,0,2.3-0.9,3-1.6v-7.8h1.5L167.8,127.7L167.8,127.7z"/>
	<path d="M172.8,117.2h1.5v1.4c0.9-0.9,2-1.6,3.1-1.6c1.6,0,3,0.8,3,3.1v7.6h-1.5v-7.6c0-1.4-0.7-1.9-1.7-1.9c-1.1,0-2.3,0.9-3,1.6   v7.8h-1.5L172.8,117.2L172.8,117.2z"/>
	<path d="M191.6,125.2v-5.5c-0.8-0.9-1.8-1.5-2.6-1.5c-1.7,0-3,1.1-3,4.3c0,2.7,1.1,4.1,3,4.1C189.9,126.7,190.6,126.3,191.6,125.2   L191.6,125.2z M191.6,113.1h1.5v12.3c0,0.8,0,1.5,0.1,2.3h-1.3l-0.2-1c-0.5,0.7-1.5,1.2-2.8,1.2c-1.9,0-4.3-1.3-4.3-5.4   c0-4.1,2.4-5.4,4.2-5.4c1,0,2,0.5,2.8,1.2L191.6,113.1L191.6,113.1z"/>
	<path d="M210.7,120.7h4.9v7h-1.3v-1.3c-0.8,1-2.2,1.5-3.9,1.5c-3.3,0-5.7-2.4-5.7-7.5s2.4-7.5,5.7-7.5c2.5,0,4.4,1.2,5.2,4.3   l-1.5,0.3c-0.7-2.3-1.9-3.2-3.6-3.2c-2.1,0-4.2,1.5-4.2,6.1c0,4.7,2,6.1,4.2,6.1c2.4,0,3.5-1.5,3.5-3.2v-1.2h-3.3L210.7,120.7   L210.7,120.7z"/>
	<path d="M220.9,121.5h5.3c0-1.9-0.9-3.2-2.5-3.2C222,118.3,221.1,119.6,220.9,121.5L220.9,121.5z M226.9,124.9l1.1,0.6   c-0.7,1.2-1.7,2.4-4,2.4c-2.3,0-4.6-1.6-4.6-5.4c0-3.4,1.7-5.4,4.3-5.4c2.2,0,4,1.4,4,4.8v1h-6.8c0,2.3,1.4,3.9,3.1,3.9   C225.3,126.7,226.3,126,226.9,124.9L226.9,124.9z"/>
	<path d="M233.2,127.7h-1.5v-10.5h1.5v1.4c1-1.1,2.1-1.6,3.1-1.6c1.4,0,2.3,0.7,2.7,1.7c0.9-1,2.1-1.7,3.3-1.7   c1.4,0,2.9,0.6,2.9,3.2v7.5h-1.5v-7.5c0-1.4-0.7-1.9-1.6-1.9c-1.3,0-2.1,0.8-2.9,1.6v7.8h-1.5v-7.5c0-1.4-0.7-1.9-1.6-1.9   c-1.3,0-2.1,0.8-2.9,1.6L233.2,127.7L233.2,127.7z"/>
	<path d="M250.6,121.5h5.3c0-1.9-0.9-3.2-2.5-3.2C251.7,118.3,250.8,119.6,250.6,121.5L250.6,121.5z M256.6,124.9l1.1,0.6   c-0.7,1.2-1.7,2.4-4,2.4c-2.3,0-4.6-1.6-4.6-5.4c0-3.4,1.7-5.4,4.3-5.4c2.2,0,4,1.4,4,4.8v1h-6.8c0,2.3,1.4,3.9,3.1,3.9   C255,126.7,256,126,256.6,124.9L256.6,124.9z"/>
	<path d="M261.9,112.9h1.5v1.7h-1.5V112.9L261.9,112.9z M261.9,127.7v-10.5h1.5v10.5H261.9L261.9,127.7z"/>
	<path d="M268.7,117.2h1.5v1.4c0.9-0.9,2-1.6,3.1-1.6c1.6,0,3,0.8,3,3.1v7.6h-1.5v-7.6c0-1.4-0.7-1.9-1.7-1.9c-1.1,0-2.3,0.9-3,1.6   v7.8h-1.5L268.7,117.2L268.7,117.2z"/>
	<path d="M287.5,125.2v-5.5c-0.8-0.9-1.8-1.5-2.6-1.5c-1.7,0-3,1.1-3,4.3c0,2.7,1.1,4.1,3,4.1C285.8,126.7,286.4,126.3,287.5,125.2   L287.5,125.2z M287.5,113.1h1.5v12.3c0,0.8,0,1.5,0.1,2.3h-1.3l-0.2-1c-0.5,0.7-1.5,1.2-2.8,1.2c-1.9,0-4.3-1.3-4.3-5.4   c0-4.1,2.4-5.4,4.2-5.4c1,0,2,0.5,2.8,1.2L287.5,113.1L287.5,113.1z"/>
	<path d="M294.4,121.5h5.3c0-1.9-0.9-3.2-2.5-3.2C295.5,118.3,294.5,119.6,294.4,121.5L294.4,121.5z M300.4,124.9l1.1,0.6   c-0.7,1.2-1.7,2.4-4,2.4c-2.3,0-4.6-1.6-4.6-5.4c0-3.4,1.7-5.4,4.3-5.4c2.2,0,4,1.4,4,4.8v1h-6.8c0,2.3,1.4,3.9,3.1,3.9   C298.8,126.7,299.8,126,300.4,124.9L300.4,124.9z"/>
	<path d="M306.8,119.7v5.5c1,1,1.7,1.4,2.6,1.4c1.8,0,3-1.5,3-4.1c0-3.2-1.3-4.3-3-4.3C308.6,118.3,307.6,118.9,306.8,119.7   L306.8,119.7z M305.4,113.1h1.5v5.1c0.9-0.7,1.9-1.2,2.8-1.2c1.8,0,4.2,1.4,4.2,5.4c0,4.2-2.4,5.4-4.3,5.4c-1.3,0-2.2-0.5-3-1.3   l-0.3,1.1h-1c0.1-0.8,0.1-1.5,0.1-2.3V113.1L305.4,113.1z"/>
	<path d="M325.6,127.7h-1.5v-1.4c-0.9,0.9-2,1.6-3.1,1.6c-1.6,0-3-0.8-3-3.1v-7.6h1.5v7.6c0,1.4,0.7,1.9,1.7,1.9   c1.1,0,2.3-0.9,3-1.6v-7.8h1.5L325.6,127.7L325.6,127.7z"/>
	<path d="M330.6,117.2h1.5v1.4c0.9-0.9,2-1.6,3.1-1.6c1.6,0,3,0.8,3,3.1v7.6h-1.5v-7.6c0-1.4-0.7-1.9-1.7-1.9c-1.1,0-2.3,0.9-3,1.6   v7.8h-1.5L330.6,117.2L330.6,117.2z"/>
	<path d="M349.5,125.2v-5.5c-0.8-0.9-1.8-1.5-2.6-1.5c-1.7,0-3,1.1-3,4.3c0,2.7,1.1,4.1,3,4.1C347.7,126.7,348.4,126.3,349.5,125.2   L349.5,125.2z M349.5,113.1h1.5v12.3c0,0.8,0,1.5,0.1,2.3h-1.3l-0.2-1c-0.5,0.7-1.5,1.2-2.8,1.2c-1.9,0-4.3-1.3-4.3-5.4   c0-4.1,2.4-5.4,4.2-5.4c1,0,2,0.5,2.8,1.2L349.5,113.1L349.5,113.1z"/>
	<path d="M160.4,103.6V89.1h3.9c4,0,6.6,2.5,6.6,7.3c0,4.3-2.3,7.3-6.7,7.3L160.4,103.6L160.4,103.6z M162,90.4v11.8h2.2   c3.4,0,5.1-2,5.1-5.9c0-4.3-2-5.9-5-5.9L162,90.4L162,90.4z"/>
	<path d="M175.5,97.4h5.3c0-1.9-0.9-3.2-2.5-3.2C176.6,94.2,175.6,95.5,175.5,97.4L175.5,97.4z M181.5,100.8l1.1,0.6   c-0.7,1.2-1.7,2.4-4,2.4c-2.3,0-4.6-1.6-4.6-5.4c0-3.4,1.7-5.4,4.3-5.4c2.2,0,4,1.4,4,4.8v1h-6.8c0,2.3,1.4,3.9,3.1,3.9   C179.9,102.6,180.9,101.9,181.5,100.8L181.5,100.8z"/>
	<path d="M194.1,103.6h-1.5v-1.4c-0.9,0.9-2,1.6-3.1,1.6c-1.6,0-3-0.8-3-3.1v-7.6h1.5v7.6c0,1.4,0.7,1.9,1.7,1.9   c1.1,0,2.3-0.9,3-1.6v-7.8h1.5L194.1,103.6L194.1,103.6z"/>
	<path d="M197.7,93.1h1.7v-3.4h1.5v3.4h2.4v1.3h-2.4v7.5c0,0.5,0.3,0.7,1.2,0.7c0.5,0,0.9,0,1.3-0.1v1.2c-0.3,0.1-0.8,0.2-1.7,0.2   c-1.6,0-2.2-0.4-2.2-1.7v-7.7h-1.7L197.7,93.1L197.7,93.1z"/>
	<path d="M205.9,101.8l1.1-0.9c0.7,1,1.7,1.6,3,1.6c1.6,0,2.3-0.8,2.3-1.7c0-2.7-6.2-1.3-6.1-5.1c0.1-1.8,1.5-2.8,3.5-2.8   c1.4,0,2.9,0.8,3.6,1.8l-1,0.9c-0.8-1-1.6-1.5-2.7-1.5c-1.2,0-1.9,0.6-1.9,1.6c0,2.3,6.1,1.1,6.1,5c0,2-1.8,3.1-3.7,3.1   C208.5,103.8,206.9,103.1,205.9,101.8L205.9,101.8z"/>
	<path d="M224.8,95.8l-1.4,0.5c-0.4-1.3-1.2-2.1-2.5-2.1c-1.8,0-2.8,1.5-2.8,4.2s1,4.2,2.8,4.2c1.3,0,2.1-0.4,2.9-1.9l1.2,0.5   c-1,1.8-2,2.7-4.1,2.7c-2.6,0-4.3-2.1-4.3-5.4s1.7-5.4,4.3-5.4C223.1,92.9,224.1,94.2,224.8,95.8L224.8,95.8z"/>
	<path d="M229.1,89.1h1.5v5.5c0.9-0.9,2-1.6,3.1-1.6c1.6,0,3,0.8,3,3.1v7.6h-1.5v-7.6c0-1.4-0.7-1.9-1.7-1.9c-1.1,0-2.3,0.9-3,1.6   v7.8h-1.5L229.1,89.1L229.1,89.1z"/>
	<path d="M242.2,97.4h5.3c0-1.9-0.9-3.2-2.5-3.2C243.3,94.2,242.4,95.5,242.2,97.4L242.2,97.4z M248.2,100.8l1.1,0.6   c-0.7,1.2-1.7,2.4-4,2.4c-2.3,0-4.6-1.6-4.6-5.4c0-3.4,1.7-5.4,4.3-5.4c2.2,0,4,1.4,4,4.8v1h-6.8c0,2.3,1.4,3.9,3.1,3.9   C246.6,102.6,247.6,101.9,248.2,100.8L248.2,100.8z"/>
	<path d="M252.9,103.6V93.1h1.5v2.1c0.8-1.4,1.7-2.2,3.4-2.2v1.5c-1.8,0-2.8,1.2-3.4,3.4v5.8H252.9L252.9,103.6z"/>
	<path d="M277.6,92.5l-1.5,0.3c-0.4-1.4-1.5-2.5-3.4-2.5c-1.7,0-2.7,0.8-2.7,2.3c0,3.2,8.2,2.4,8.2,7.1c0,2.1-1.2,4.3-4.9,4.3   c-3.2,0-4.4-2.1-5.2-3.8l1.5-0.5c0.6,1.5,1.7,2.9,3.8,2.9s3.2-1.1,3.2-2.6c0-3.7-8.2-2.6-8.2-7.2c0-2.1,1.8-3.8,4.4-3.8   C275.1,88.9,276.8,90.1,277.6,92.5L277.6,92.5z"/>
	<path d="M281.2,93.1h1.7v-3.4h1.5v3.4h2.4v1.3h-2.4v7.5c0,0.5,0.3,0.7,1.2,0.7c0.5,0,0.9,0,1.3-0.1v1.2c-0.3,0.1-0.8,0.2-1.7,0.2   c-1.6,0-2.2-0.4-2.2-1.7v-7.7h-1.7V93.1L281.2,93.1z"/>
	<path d="M296.2,100.9V98c-3.3,0.6-5,1.6-5,3c0,1,0.9,1.6,1.7,1.6C294.1,102.6,295.4,101.8,296.2,100.9L296.2,100.9z M291.4,95.8   l-1.3-0.7c0.7-1.2,2-2.2,3.9-2.2c1.8,0,3.6,0.8,3.6,3.1v5.3c0,1.2,0.1,1.7,0.2,2.3h-1.5l-0.2-1.5c-0.7,0.8-1.9,1.7-3.5,1.7   c-1.6,0-3-1-3-2.9c0-2.3,1.8-3.4,6.4-4.3v-0.6c0-1.4-0.9-1.9-2.2-1.9C292.5,94.2,291.7,95.1,291.4,95.8L291.4,95.8z M293.2,91.7   h-1.8v-1.9h1.8V91.7L293.2,91.7z M296.4,91.7h-1.8v-1.9h1.8V91.7L296.4,91.7z"/>
	<path d="M308.5,101.2v-5.5c-0.8-0.9-1.8-1.5-2.6-1.5c-1.7,0-3,1.1-3,4.3c0,2.7,1.1,4.1,3,4.1C306.7,102.6,307.4,102.2,308.5,101.2   L308.5,101.2z M308.5,89.1h1.5v12.3c0,0.8,0,1.5,0.1,2.3h-1.3l-0.2-1c-0.5,0.7-1.5,1.2-2.8,1.2c-1.9,0-4.3-1.3-4.3-5.4   c0-4.1,2.4-5.4,4.2-5.4c1,0,2,0.5,2.8,1.2L308.5,89.1L308.5,89.1z"/>
	<path d="M313.5,93.1h1.7v-3.4h1.5v3.4h2.4v1.3h-2.4v7.5c0,0.5,0.3,0.7,1.2,0.7c0.5,0,0.9,0,1.3-0.1v1.2c-0.3,0.1-0.8,0.2-1.7,0.2   c-1.6,0-2.2-0.4-2.2-1.7v-7.7h-1.7L313.5,93.1L313.5,93.1z"/>
	<path d="M323.5,97.4h5.3c0-1.9-0.9-3.2-2.5-3.2C324.6,94.2,323.6,95.5,323.5,97.4L323.5,97.4z M329.5,100.8l1.1,0.6   c-0.7,1.2-1.7,2.4-4,2.4c-2.3,0-4.6-1.6-4.6-5.4c0-3.4,1.7-5.4,4.3-5.4c2.2,0,4,1.4,4,4.8v1h-6.8c0,2.3,1.4,3.9,3.1,3.9   C327.9,102.6,328.9,101.9,329.5,100.8L329.5,100.8z"/>
	<polygon points="338.6,99 333.5,99 333.5,97.8 338.6,97.8  "/>
	<path class="st2" d="M65.5,1.3c2.3,2.3,1.1,6.4,0.2,8.8c0.8,3.7,1.6,7.2,2.4,10.9c2.8,0.2,6.3-1.1,7.4-3.7c0.8-2.9-1.9-7,0.9-9.3   c7.4-3.9,13,3.2,19.6,4.9c7,2.9,15.3,6.6,22.5,9.9c0.1,1.7-1,3.2-2.4,4.1l-3.1,0.2c-2.9-1.7-5.9-3.1-9.1-4.3   c-1.1,4,4.7,3.7,6.3,5.4c2.4,1.7,5.1,2.8,7.5,4.4c-0.9,1.3-1.3,2.6-2.9,3.1c-4.9,0.5-7.8-3.9-11.9-5.2c-0.2,0.6-0.8,1.2-0.5,2   c4.3,2.5,8.8,6.3,13.2,8.7c0,1.2-1.1,2.3-1.7,2.9c-5.2,2.3-8.9-3.7-13.3-5.7c-0.6,0.5-1,2-0.8,2.8c4.4,3.2,8.5,5.8,12.7,9.1   c-1.3,1.9-4.1,2.8-6.8,2.4c-2.5-2-5.1-4.2-8-6.3c-1.1,0.3-1.2,1.5-1.3,2.4l11.9,9.8c-0.5,1.4-2,1.6-3.1,2.4   c-5.6,0-7.2-5.3-11.6-7.5l-1.3,1.8c4,3.7,7.7,7,11.4,10.6c-1.1,1.2-1.6,1.6-2.8,2.2c-5.7,0.8-8-5.2-12-7.8l-1.3,1.7   c3.2,3.9,7.5,7.1,9.8,10.9c-1.9,1.1-4.6,2.5-6.7,0.8c-4.5-3.7-8.3-8.9-12.7-13.2c-0.1,3.3,0.3,7,0.5,10.6c1.2,1.7,3.3,1.8,3.9,3.9   L82,75.6c-0.1-0.3-0.4-0.2-0.8-0.2L81,75.6c1.9,1.3,1.5,3.4,1.5,5.5c-0.2,0.6-1.4,1.7-2,2c-0.2-0.6,0.4-2.3-0.5-2.9   c-0.5,1.5-1.5,3.1-3.1,3.7l-3.3-0.2c1.4-1,3.9-2.3,3.3-4.4c-0.9-1.6-1.9-2-3.9-1.8c-1.2,0.9-0.8,2.4-1.3,3.7   c-1.1-1.5-0.8-4-0.4-5.7l2.3-3.3l-2.8-5.5c-0.9,2-1.2,5-3.7,5.7c0.3,4.5,0.3,9.8,1.1,14.4c-1.9,0.6-3.9-0.8-5.2-2   c-2.6-1.8,1-6.7-3.1-7.4c-4.1,1.6-0.3,7.3-4.4,8.7c-1.1,0.6-2.2,1.3-3.6,1.1l0.8-14.6c-2.3-0.9-3-3.2-3.3-5.4l-0.5-0.5   c-1.3,1.8-1.9,3.9-2.9,5.7c2.5,1.8,3.6,5,2.6,8c-0.3,0.2-0.2,0.5-0.2,0.9h-0.5c0.4-1.8-0.4-3.4-2-3.9c-1.2,0.2-2.6,1-2.8,2.3   c-0.2,2,1.6,3,3,3.9v0.5c-2.3,0.3-4.2-0.4-5.6-2c-0.2-0.5,0-1.5-0.9-1.6c-0.4,0.9-0.1,1.9-0.2,2.9c-1.3-0.1-1.5-1.5-2-2.4   c0.1-1.6-0.4-4.4,1.5-5.2L37,75.4c0.3-3.2,5.4-2.9,3.9-7c0.4-2.4,0.2-5.3,0.2-7.5c-4.9,4.4-8,9.8-13.2,13.5   c-2.3,0.6-4.5,0.1-6.3-1.3c2.9-3.3,6.6-7.7,9.8-10.9l-1.3-1.7c-4.6,3-6.4,9.3-12.6,7.8c-1.1-0.6-1.6-1.3-2.4-2.2   c3.7-3.2,8.1-6.8,11.4-10c-0.4-0.8-0.1-2.2-1.3-2c-4.4,2.6-8.1,10.4-14,5.9c-0.2-0.3-0.6-0.6-0.5-1.1l11.6-9.6c0-1-0.3-1.7-1-2.6   c-4.2,1.8-6.9,8.3-12.7,6.3c-1-0.8-2-1.2-2-2.6c4-2.6,8.8-6.1,12.7-9.1c-0.3-0.8-0.5-1.4-0.9-2h-1c-4,2.2-7.1,7-12.2,5.7   c-0.8-1-1.9-1.5-2.4-2.9l13.8-9.3c-0.3-0.5-0.6-1.2-0.5-1.6c-5,1-9.7,8-14.6,3.1c-0.9-2.3,1.5-2.4,2.6-3.1   c3.2-2.3,7.8-3.6,10.7-5.9c0.4-0.3,0.2-1,0.2-1.5c-1.1-1.4-2.2,0.6-3.3,0.5c-3.1,1-5.6,4.5-9.6,2.8c-0.6-1.1-2.2-1-2.3-2   c0-1.5,1.9-2.7,3.6-3.3c11-4.9,22.3-9.5,32.9-14.6c2.4,0.1,5-0.5,6.5,1.6c3.1,4-2.5,11.2,5,12.1c1.3,0,3,1.4,4.1-0.2   c-0.2-3.2,1.2-5.9,1.8-8.8c-1.2-1.2-2.4-2.6-3.1-4.3c1-0.1,2,0.1,2.8-0.3V6.3c-1.1-0.5-2.4-0.1-3.3,0.5v0.2h-0.5   c-0.4-1.8-0.1-4.1,2.2-4.6c1.6-0.9,4-1.5,5.9-2.4C60.3,0.6,63.6-1,65.5,1.3L65.5,1.3z"/>
	<path class="st3" d="M68.3,3.5c1.3,2.3,3.6,18.8,3.6,18.8c2.6-0.1,5.3-1,7.2-3c3.1-3.7-3-12.2,5.2-11.6c5.7,1.5,11.2,4.1,16.3,6.7   c-0.5,1.1-0.6,1.8-1.8,2.4l-2.8-0.2c0-1.1-1.2-0.2-1.5-0.9c-0.3,1.1-0.6,1.9-0.5,3.1c1.9,1.5,3.8,1.8,5.9,3.1   c0.8,0.8-0.4,1.9-1.3,2.4c-2.6,1.2-6.1-3.9-5.7,1.5c1.8,1.4,3.7,2.5,5.7,3.3c0,1.2-0.9,1.9-1.8,2.4c-1.9,0.5-2.9-1.5-4.6-1.8   c-0.2,1.3-1.9,2.8-0.8,3.9c2,0.9,3.1,2.4,5.2,3.7c-0.5,0.8-1.3,1.8-2.6,1.7c-2,0.2-2.6-1.4-4.2-2.3c-0.9,0.6-1.4,1.9-1.5,3.1   c1.6,1.7,3.1,3,5.2,4.3c-0.5,0.9-0.9,1.5-1.8,1.6c-2.3,0.3-3.1-1.5-4.9-2.4c-1,0.6-1.3,1.9-1.8,2.9l4.9,4.3   c-0.3,1.2-1.8,1.9-3.3,1.6c-1.5-0.8-1.9-2.4-3.6-2.6c-1,0.8-1.4,1.7-1.6,2.8l4.4,4.2c0.2,1.9-2.2,1.4-3.3,2c-2.2-0.2-3-2.6-4.6-3.3   c0.1,1.1,1.2,3,2.6,4l1.3,13.9c1.3,0.2,2.6,0.8,3.7,2.9c1,2,0.2,4.8-0.4,5.8c-0.3-1.2-1.6-5.7-5.5-5.4c-2,0.1-4.2,1.9-4.2,1.9   c-0.4-2.8,3.6-4.5,2.6-6.2l-4.4-9.7c-1-0.1-2.4,0.1-3.3,0.8c-0.8,7.9,1.2,15.2,1.3,23.1c-2.3,0-3.6-1.9-4.7-3.4   c0.3-1.3-0.5-2.3-0.2-3.6c0.3,0,0.9-0.2,1.1,0.2c0.3-5.9,0.3-12.4,0-18.3c-0.4-0.1-0.5,0.3-0.9,0.5l0.5,15.7l-0.5,0.8   c-0.4-0.8-2.3-0.6-2.3-2c-0.1-4.4,0.2-9.2-0.3-13.5h-0.4L63,76.4c-0.4,1-1.5,1.8-2.6,1.8c0-5.7,0.2-11.5-0.2-17h-0.5v18.1l1.3,0.2   c0.2,2.2-0.1,4.1-1.8,5.5c-0.9,0.9-1.9,1-3.1,1.3c0.3-7.7,1.5-14.9,1.1-22.9c-1.2-0.9-1.8-1.4-3.3-1.5c-2.2,3.6-3.3,6.4-4.9,10.3   c0.5,1.2,3.1,4.1,2.4,6.1c-0.8-1.2-4.1-3.6-6.3-2.6c-1.8,0.8-3.3,4.7-3.3,6c-0.8-0.9-1.3-3.2-1.1-5.1c0.4-3.2,4.9-4.4,4.9-4.4   c0.3-2,0.4-6.6,0.9-11.8c-0.1-1.2,0.8-1.5,1.2-2.3c0.8-0.6,2-1.8,1.8-2.8c-1.5,0.5-2.5,2.4-3.9,3.1c-1.4,0.3-2.9-0.4-4.1-1.3   c1.1-1.6,2.5-3.2,4.1-4.4c0.8-1.4-1.1-2.3-1.5-3.3c-1.8,1.2-3.2,3.5-5.7,2.6c-0.4-0.6-1.6-1.1-0.8-1.8c1.8-0.9,2.9-2.7,4.6-3.9   l-1.8-3.1c-1.8,1.7-3.2,2.9-5.9,2.4c0-0.9-1.1-0.4-1.1-1.3c1.6-1.6,5.5-3,5-5.7c-0.6-0.5-0.2-1.4-1.1-1.8c-1.8,1-3.6,3.6-5.9,1.8   c-0.3-0.5-1.2-0.8-1.1-1.5c1.8-1.9,6.4-2.6,5.5-5.7l-1.1-1.8c-1.5,0.9-3.5,2.6-5.7,1.5c-0.1-0.6-1.3-1.3-0.4-2   c2-0.6,3.2-1.8,5.2-2.8c0.5-1.1-0.3-2.3-0.5-3.3c-1.8,0.4-3.3,2.4-5.5,1.3c-0.9-0.5-0.6-1.4-1-2.2c2-1.7,8.1-1.6,5.9-6.1   c-1.9,0.2-4.6,1.9-6.3-0.5c0-0.3,0.2-0.9-0.2-1.1c4.9-2.6,9.8-4,14.4-6.5C43,7.8,46,7.6,47,10c1,3.3-2.2,8.5,2.2,10.4   c1.7,1,4.1,1.1,6.6,1.1c1.4-3.2,2.2-7.4,3.1-11.7c0.3-1.4-1.4-2.5-3.3-3c-1.5-0.1-2.6,1.1-2.6,1.1c-0.2-0.2-0.7-2,0.1-2.4   c1.9-1.1,3.3-1.6,5.3-2.3c0.9-1,0.9-1.9,2.3-2.2C63.5,0.2,66.2-0.1,68.3,3.5L68.3,3.5z"/>
	<path class="st3" d="M107.3,17.2c-0.2,1.6-1.5,2.2-2.9,2.6c-1.4-0.2-2.6-0.8-3.9-1.3l-0.5,2.3c-1.7-1-5-1-5.2-3.9   c1.4-0.1,2.2,1.3,3.7,0.9c1.2-0.6,2.7-1.5,2.8-3.1C103.2,15,105.3,16.3,107.3,17.2L107.3,17.2z"/>
	<path class="st3" d="M27.5,17.7c1.4,0,2.9,0.1,3.9-0.9c0.5,2.6-3.1,2.9-4.9,4.2L26,19c-1.8,0.2-3.7,1.6-5.7,0.8   c-0.9-0.9-1.5-1.4-1.3-2.6c2.6,0.1,6.3-5,7.5-0.3L27.5,17.7L27.5,17.7z"/>
	<path class="st3" d="M20.3,20.7c1.6,0.6,3.5,0.1,5-0.4c0.3,3-3.6,2.5-5.2,4.1c-0.4-0.5-0.1-3-1.6-2.4C14,22.9,9.8,29.7,4.8,25   c0.1-2.2,2.9-2.6,4.4-3.3l8.8-3.9C18.4,19.1,19.1,19.9,20.3,20.7L20.3,20.7z"/>
	<path class="st3" d="M121.6,23.3c0,1.5-0.9,2.3-1.8,2.9c-1.9,0.9-3.8-0.5-5.2-0.8c-2-1.8-5-2.4-7.2-3.9c-0.3,0.8-0.4,1.6-0.5,2.6   c-1.9-1.3-5.6-1.3-5.7-4.2c2.4,0.2,3.9,1,5.9-0.2c1.3-0.8,0.6-3.1,2.6-1.8C113.4,20.3,117.2,21.3,121.6,23.3L121.6,23.3z"/>
	<path class="st3" d="M106.5,25.2c-0.1,1.1-0.9,2.4-2,2.6c-1.9,0.8-4.7-3.8-5.2,0l-0.5,0.5c-1.5-1.4-5.1-2-4.6-4.1   c1.4,1,3.4,1.3,5.2,0.8C100.3,19.6,104.1,25.2,106.5,25.2L106.5,25.2z"/>
	<path class="st3" d="M27.5,25.2c1.8,0.9,3.5-0.3,5-1c0.4,2.5-2.8,2.6-4.4,4.1l-0.2,0.2c-0.6-0.3-0.8-1.3-0.8-2   c-1.9-0.3-3.3,2.8-5.7,1.3l-1.3-2c1.5-1.2,3.5-2.2,5.4-2.8C25.9,24,26.6,24.5,27.5,25.2L27.5,25.2z"/>
	<path class="st3" d="M114,29.1c0.2,0.6,1.1,0.9,1.8,1.1c1,0.8,3.1,1.7,4.6,2.6c-0.1,1.3-1.2,2.2-2.4,2.6c-4.2-1.3-7.8-3.6-11.9-5.7   c-0.2,0.8-0.5,1.5-0.8,2.4c-1.7-1.5-5.7-1.7-5.2-4.4c1.6,0.6,3.6,2,5.4,0.8l1.8-2.6C109.6,27.2,112.2,28,114,29.1L114,29.1z"/>
	<path class="st3" d="M21.9,29.1c1.7,0.6,2.6-1.2,4.1-1.3c2.2,2.3-1.8,2-2.4,3.1c-1.1-0.1-1.8,2.3-2.8,1.1c0.5-0.6-0.5-1.3-0.5-2.2   c-4.6,1.5-8.5,6.9-13.7,4.7c-0.4-0.3-0.1-1.1-0.8-1.3c4.6-2.2,8.4-5.2,12.9-7.3C19.4,27.2,20.6,28.5,21.9,29.1L21.9,29.1z"/>
	<path class="st3" d="M105.2,32.9c-0.2,1.1-1.3,2-2.3,2.4c-2.3,0.2-3-1.3-4.6-2C97.7,33.9,97,35,97,36.1l-5.2-3.3l0.8-1.8   c1.6,0.6,2.8,2.4,4.9,1.3c0.9-0.9,1.5-1.3,2.2-2.4L105.2,32.9L105.2,32.9z"/>
	<path class="st3" d="M29.2,32.4c1.9,1.2,3.3-0.8,4.9-1.5c1,0.4,0.3,1.5,0.9,2c-1.8,1.2-3.5,2.6-5.5,3.1c0-0.9-0.1-1.8-1-2.4   c-1.8,0.8-3.2,2.5-5.5,2.2L21.1,34c1.8-1.9,4-2.6,6.3-3.9C27.5,31,28.3,32,29.2,32.4L29.2,32.4z"/>
	<path class="st3" d="M118.7,41.8c-0.3,1.2-1.1,1.6-2,2.3c-4.6,0.5-8.4-4.4-12.4-6.5c-0.6,0.5-0.9,1.8-1.3,2.6c-1.6-1.1-5-2.4-5-4.6   c0.4-0.2,0.2-0.6,0.3-1c1.7,0.8,3.8,2.7,5.9,1.3c1-0.3,1.2-1.4,1.8-2.2C110.1,36.2,114.6,39.3,118.7,41.8L118.7,41.8z"/>
	<path class="st3" d="M20.3,34.2c0.1,1.1,1.3,1.8,2,2.4c2.2,1,3.8-0.6,5.5-1.6l1,1.6c-1.3,1.7-3.3,2.8-5.2,4.1   c0-1.1-0.8-1.8-1.3-2.8c-5.2,1.7-8.1,9.5-14.2,5.2c0-0.3,0.1-0.6-0.2-0.8C11.3,39.6,16.2,36.5,20.3,34.2L20.3,34.2z"/>
	<path class="st3" d="M102.4,41.2c0.1,0.8-1,1.7-2,2c-2.7,0.6-2.8-1.8-5-2.6l-1,1.3l0.2,0.3l-0.8,1c-1.4-1.8-4.7-2.4-4.4-4.9   l0.5-0.5c1.2,1.5,3.2,2.2,5.4,1.8l2-2.4L102.4,41.2L102.4,41.2z"/>
	<path class="st3" d="M32.7,40.2c1.8,0.3,3.1-1.3,4.2-2c1.7,2.6-2.9,3.5-3.9,5.2c-1.2,0-0.8-1.6-1.6-2.3c-1.9,1.1-3.5,3.7-6.5,2.3   c-0.5-0.2-1-0.9-1-1.5c2.7-0.6,4.9-6.6,7.2-2L32.7,40.2L32.7,40.2z"/>
	<path class="st3" d="M101.1,44c0.9-0.4,1.8-1.1,2.4-2l11.9,8.5c-5.4,5.7-9.8-3.3-14-5.2c-0.9,0.5-1.4,1.6-1.5,2.6   c-1.8-1.6-5.3-2.7-4.6-5.4l0.2-0.5C97.1,43.3,99,44.7,101.1,44L101.1,44z"/>
	<path class="st3" d="M25.5,44.6c2.3,0.6,3.9-1,5.2-2c1.1,0.2,1.3,1.5,0.8,2.4l-4.3,3.3l-1.3-2.6c-4.9,1.5-8.7,11.1-14.2,4.9   c4.1-2.4,7.1-5.6,11.6-8C23.7,43.3,24.5,44.5,25.5,44.6L25.5,44.6z"/>
	<path class="st3" d="M92,46.4c0.8-0.2,1.7-0.6,2-1.5c1.9,1.2,3.6,2.6,5,4.1c-1,1.1-2.6,1.7-3.9,1.1l-3.3-2.6   c-0.4,0.8-1.2,2.7-2.2,2c-1-1.3-2.8-2.4-3.9-3.7l0.9-1.3C87.9,45.7,90.1,46.9,92,46.4L92,46.4z"/>
	<path class="st3" d="M36.4,50.1l-1.5-2.2c-1.9,0.9-3.1,3.5-5.7,2.6c-0.4-0.6-1.2-0.5-1.6-1.3c2.4-0.8,4.6-7.1,7-2.6   c1.9,0.5,4.1-0.6,5.5-1.7l1,1.5L36.4,50.1L36.4,50.1z"/>
	<path class="st3" d="M98.5,50.8c0.5-0.5,1.3-1.6,2-0.8c3.7,3.2,6.9,5.8,10.7,8.7c-0.9,1.7-3.1,1.7-4.7,1.3   c-3.2-2.2-5.9-4.9-9.3-7.2c-1.1,0.4-0.5,1.9-1.8,1.8L91,50.5L92,49C94,50.1,96,51.9,98.5,50.8L98.5,50.8z"/>
	<path class="st3" d="M35.6,50.5C34.8,52,32.7,54,31,54.7l-1.3-1.8c-5.1,1.5-7.8,11.2-14.2,6.3l11.3-9.4c1.3,1,2.5,2.4,4.4,1.8   C32.9,51.4,34.4,47.2,35.6,50.5L35.6,50.5z"/>
	<path class="st3" d="M88.9,52.7c0.6-0.2,1.1-0.9,1.6-1.3c1.3,1.3,3.6,2.8,4.3,4.6c-2.7,3-4.6-1.2-6.9-1.8L86.3,56   c-1.2-1.4-5.1-3.2-3.3-5.2C84.8,51.6,86.5,54.4,88.9,52.7L88.9,52.7z"/>
	<path class="st3" d="M44.4,51.6c-0.4,1.8-2.7,3.2-3.9,4.6c-0.8,0-0.9-1.3-1.5-1.5c-1.8,0.8-3.5,3.9-6.3,2.3l-1-1l4.6-4.4   c0.9,1.3,2.7,2.4,4.4,1.5C42.4,53,42.8,50.2,44.4,51.6L44.4,51.6z"/>
	<path class="st3" d="M93.5,58.1c0.6-0.5,1.7-0.9,2.2-1.5c3.6,2.4,7.8,6.8,10.8,9.8c-1.1,1.5-3.3,1.1-4.9,0.8   c-2.9-2.2-6-5.3-8.8-7.8l-1.5,1.8c-1-1.7-5.4-3.5-3.3-5.7C90.3,56.1,90.5,58.8,93.5,58.1L93.5,58.1z"/>
	<path class="st3" d="M36.2,61.4c-0.9-0.3-1.5-1.1-2.2-2c-4.2,3.2-7.4,10.5-13.7,7.2c0.1-1.3,2.3-1.9,2.9-3.1l7.8-6.9   c1.1,1,2.4,2.4,4.3,1.7l3.5-2.6C40.8,58.2,37.1,59.3,36.2,61.4L36.2,61.4z"/>
	<path class="st3" d="M90.5,61.9c-0.3,1.1-1.6,1.1-2.4,1.5c-3,0.4-4.4-2.2-6.3-4.1c1.7-0.3,3.6-0.2,4.7-1.8L90.5,61.9L90.5,61.9z"/>
	<path class="st3" d="M44.7,59.6c-1.6,1.6-2.9,4.5-5.5,4.7c-1-0.3-2.3-0.6-2.8-1.6c1-1.9,2.8-2.9,4.1-4.9   C41.5,58.9,43,59.9,44.7,59.6L44.7,59.6z"/>
	<path class="st3" d="M100.3,72.5c-1,0.9-2.5,1.6-4.2,1.3c-3.7-1.9-6.1-6-9.5-9.3c1.7,0.1,3.3-0.5,4.3-1.8L100.3,72.5L100.3,72.5z"/>
	<path class="st3" d="M55.8,71.5c-1.9-2-2.9-5.2-2-7.8l0.5-0.8C58.3,64.1,55.3,68.3,55.8,71.5L55.8,71.5z"/>
	<path class="st3" d="M39.7,65.3c-4.2,2.8-6.8,12-13.2,7.5c2.9-3.6,6-5.8,8.5-9.4C36.5,64.3,38.2,64.7,39.7,65.3L39.7,65.3z"/>
	<path class="st3" d="M73.4,64.7c0.4,2.8-0.3,5.1-2.3,6.8c-0.2-2.3-0.8-4.9-0.5-7.5C71.3,63.1,73.5,63.2,73.4,64.7L73.4,64.7z"/>
	<path class="st0" d="M72.1,121.4v-6.1h-3.8v-6H58.1v6.2h-3.5v6.3h-3.3v18.4h7.8l0-8.7c0,0,0.5-3.6,4.2-3.6c4.3,0,4.3,3.6,4.3,3.6   l0,8.7h8v-18.7H72.1z"/>
	<path class="st0" d="M102.7,108.9v-6.1h-3.8v-6H88.6v6.2h-3.5v6.3h-3.3v18.4h7.8l0-8.7c0,0,0.5-3.6,4.2-3.6c4.3,0,4.3,3.6,4.3,3.6   l0,8.7h8v-18.7H102.7z"/>
	<path class="st0" d="M41.1,108.9v-6.1h-3.8v-6H27.1v6.2h-3.5v6.3h-3.3v18.4h7.8l0-8.7c0,0,0.5-3.6,4.2-3.6c4.3,0,4.3,3.6,4.3,3.6   l0,8.7h8v-18.7H41.1z"/>
</g>
</svg>